<svg width="79" height="80" viewBox="0 0 79 80" fill="none" xmlns="http://www.w3.org/2000/svg">
<path d="M61.2263 53.8015C60.2738 50.6256 57.6605 48.2476 54.4092 47.5968L47.1715 46.1508V44.6408H47.1382C50.2553 42.3075 52.2856 38.5973 52.2856 34.4126V29.2985C52.2856 22.2488 46.5501 16.5133 39.5003 16.5133C32.4505 16.5133 26.7151 22.2488 26.7151 29.2985V34.4126C26.7151 38.5973 28.7454 42.3075 31.8624 44.6408H31.8292V46.1508L24.5902 47.5981C21.3389 48.2488 18.7256 50.6256 17.7731 53.8027L14.7686 63.8187H64.2321L61.2263 53.8015ZM29.2721 34.4126V29.2985C29.2721 23.659 33.8608 19.0704 39.5003 19.0704C45.1399 19.0704 49.7285 23.659 49.7285 29.2985V34.4126C49.7285 40.0522 45.1399 44.6408 39.5003 44.6408C33.8608 44.6408 29.2721 40.0522 29.2721 34.4126ZM44.6144 46.1226V46.9499C44.337 47.5584 43.0904 49.7549 39.5003 49.7549C35.9396 49.7549 34.6777 47.5789 34.3862 46.9473V46.1226C35.9537 46.8105 37.6823 47.1979 39.5003 47.1979C41.3184 47.1979 43.047 46.8105 44.6144 46.1226ZM18.2052 61.2617L20.2227 54.5353C20.9029 52.2685 22.7696 50.5694 25.0926 50.104L32.4032 48.6413C33.2407 50.0311 35.2556 52.312 39.5003 52.312C43.745 52.312 45.76 50.0311 46.5974 48.6426L53.908 50.104C56.2311 50.5694 58.0965 52.2672 58.7779 54.5353L60.7954 61.2617H18.2052V61.2617Z" fill="#7052BA"/>
<path d="M42.0571 30.5771H36.943C36.2372 30.5771 35.6645 30.0043 35.6645 29.2986V28.0201C35.6645 27.3143 36.2385 26.7415 36.943 26.7415H42.0571C42.7628 26.7415 43.3356 27.3143 43.3356 28.0201H45.8927C45.8927 25.9054 44.1718 24.1845 42.0571 24.1845H40.7786V21.6274H38.2215V24.1845H36.943C34.8283 24.1845 33.1074 25.9054 33.1074 28.0201V29.2986C33.1074 31.4133 34.8283 33.1342 36.943 33.1342H42.0571C42.7628 33.1342 43.3356 33.7069 43.3356 34.4127V35.6912C43.3356 36.397 42.7616 36.9697 42.0571 36.9697H36.943C36.2372 36.9697 35.6645 36.397 35.6645 35.6912H33.1074C33.1074 37.8059 34.8283 39.5268 36.943 39.5268H38.2215V42.0838H40.7786V39.5268H42.0571C44.1718 39.5268 45.8927 37.8059 45.8927 35.6912V34.4127C45.8927 32.298 44.1718 30.5771 42.0571 30.5771Z" fill="#7052BA"/>
</svg>
