<svg width="81" height="80" viewBox="0 0 81 80" fill="none" xmlns="http://www.w3.org/2000/svg">
<path d="M41.7991 38.7171H39.2014C38.4857 38.7171 37.9025 38.1411 37.9025 37.4343C37.9025 36.7274 38.4844 36.1514 39.2014 36.1514H41.7991C42.5148 36.1514 43.098 36.7261 43.098 37.4343H45.6958C45.6958 35.3124 43.9475 33.5857 41.7991 33.5857V31.02H39.2014V33.5857C37.053 33.5857 35.3047 35.3124 35.3047 37.4343C35.3047 39.5561 37.053 41.2828 39.2014 41.2828H41.7991C42.5148 41.2828 43.098 41.8588 43.098 42.5657C43.098 43.2725 42.5161 43.8485 41.7991 43.8485H39.2014C38.4857 43.8485 37.9025 43.2738 37.9025 42.5657H35.3047C35.3047 44.6875 37.053 46.4143 39.2014 46.4143V48.98H41.7991V46.4143C43.9475 46.4143 45.6958 44.6875 45.6958 42.5657C45.6958 40.4439 43.9475 38.7171 41.7991 38.7171Z" fill="#7052BA"/>
<path fill-rule="evenodd" clip-rule="evenodd" d="M52.818 54.5489C55.3508 55.1736 57.3979 57.0453 58.2642 59.4635L59.2046 62.4769L61.7297 70.7885H41.7995H39.2018H19.2716L21.7967 62.4769L22.737 59.4622C23.6034 57.044 25.6505 55.1736 28.1833 54.5476L34.0062 53.1095V52.8285V52.3757C30.1303 50.1538 27.5118 46.0192 27.5118 41.2829V38.7172C27.5118 37.1123 27.8248 35.5819 28.3703 34.1643L23.3099 31.6782L23.8489 34.8686H0L1.15861 28.0143C1.47164 26.158 2.58869 24.5378 4.22269 23.5692L6.7763 22.0555C5.94371 20.9779 5.43065 19.6488 5.43065 18.1915V15.6258C5.43065 12.089 8.34406 9.21155 11.9251 9.21155C15.5061 9.21155 18.4195 12.089 18.4195 15.6258V18.1915C18.4195 19.6488 17.9065 20.9779 17.0752 22.0568L19.6288 23.5705C21.2615 24.5391 22.3799 26.1593 22.6929 28.0156L22.7812 28.5364L22.8682 28.5762L29.5367 31.8693C31.6227 28.6224 35.1336 26.3543 39.2018 25.9541L41.8008 25.9528C45.869 26.3543 49.3812 28.6224 51.4672 31.8706L58.2175 28.5595L58.3097 28.0143C58.6227 26.158 59.7398 24.5378 61.3738 23.5692L63.9274 22.0555C63.0948 20.9779 62.5818 19.6488 62.5818 18.1915V15.6258C62.5818 12.089 65.4952 9.21155 69.0762 9.21155C72.6572 9.21155 75.5706 12.089 75.5706 15.6258V18.1915C75.5706 19.6488 75.0576 20.9779 74.225 22.0568L76.7786 23.5705C78.4113 24.5391 79.5297 26.1593 79.8427 28.0156L81 34.8686H57.1511L57.6927 31.6602L52.6284 34.1618C53.1765 35.5806 53.4895 37.111 53.4895 38.7172V41.2829C53.4895 46.0192 50.871 50.1538 46.9951 52.3757V52.8285V53.1095L52.818 54.5489ZM65.1795 15.6258C65.1795 13.504 66.9278 11.7773 69.0762 11.7773C71.2246 11.7773 72.9729 13.504 72.9729 15.6258V18.1915C72.9729 20.3134 71.2246 22.0401 69.0762 22.0401C66.9278 22.0401 65.1795 20.3134 65.1795 18.1915V15.6258ZM60.8711 28.4377C61.0595 27.3229 61.7297 26.3517 62.7103 25.7693L66.0134 23.8117C66.9291 24.3017 67.9631 24.6058 69.0762 24.6058C70.1894 24.6058 71.2233 24.3017 72.139 23.8117L75.4421 25.7693C76.4227 26.3505 77.0929 27.3229 77.2813 28.4377L77.9333 32.3029H60.2191L60.8711 28.4377ZM8.02843 15.6258C8.02843 13.504 9.77673 11.7773 11.9251 11.7773C14.0735 11.7773 15.8218 13.504 15.8218 15.6258V18.1915C15.8218 20.3134 14.0735 22.0401 11.9251 22.0401C9.77673 22.0401 8.02843 20.3134 8.02843 18.1915V15.6258ZM3.06798 32.3029L3.72002 28.4377C3.90836 27.3229 4.57858 26.3517 5.55924 25.7693L8.86232 23.8117C9.77803 24.3017 10.8119 24.6058 11.9251 24.6058C13.0382 24.6058 14.0722 24.3017 14.9879 23.8117L18.291 25.7693C19.2716 26.3505 19.9418 27.3229 20.1302 28.4377L20.7822 32.3029H3.06798ZM40.5006 51.5457C34.7713 51.5457 30.1095 46.9415 30.1095 41.2829V38.7172C30.1095 33.0585 34.7713 28.4543 40.5006 28.4543C46.23 28.4543 50.8918 33.0585 50.8918 38.7172V41.2829C50.8918 46.9415 46.23 51.5457 40.5006 51.5457ZM44.3973 53.52V54.1114C44.3973 56.2332 42.649 57.96 40.5006 57.96C38.3523 57.96 36.604 56.2332 36.604 54.1114V53.52C37.8353 53.9036 39.1433 54.1114 40.5006 54.1114C41.858 54.1114 43.166 53.9036 44.3973 53.52ZM22.763 68.2228L25.0958 60.5411C25.6193 58.8156 27.0442 57.4738 28.8119 57.0376L34.2309 55.6996C34.9518 58.4654 37.4781 60.5257 40.5006 60.5257C43.5232 60.5257 46.0495 58.4654 46.7691 55.6983L52.188 57.0363C53.9571 57.4725 55.3807 58.8156 55.9042 60.5398L58.2383 68.2228H22.763Z" fill="#7052BA"/>
</svg>
