<svg width="80" height="81" viewBox="0 0 80 81" fill="none" xmlns="http://www.w3.org/2000/svg">
<path fill-rule="evenodd" clip-rule="evenodd" d="M58.1299 56.8325C57.2541 53.7416 54.7672 51.4295 51.6408 50.8008L44.8452 49.4311V49.1113C47.0862 47.8002 48.7554 45.6126 49.395 43.0148C51.6299 42.5802 53.3245 40.6014 53.3245 38.2246V29.8294C53.3245 26.4626 51.1623 23.5218 48.0116 22.5196C46.2479 20.1147 43.4643 18.6925 40.4783 18.6925C32.8663 18.6925 26.6752 24.9318 26.6752 32.603V38.2246C26.6752 40.6014 28.3698 42.5802 30.6048 43.0148C31.2443 45.6126 32.9136 47.8002 35.1545 49.1113V49.4311L28.3614 50.8008C25.7752 51.3221 23.642 53.003 22.4803 55.3151L21.6082 57.7566L20.2236 62.6397H30.3092H32.7319H59.7761L58.1299 56.8325ZM49.6905 36.1224V40.3267C50.4113 39.9031 50.9019 39.1243 50.9019 38.2246C50.9019 37.3249 50.4113 36.546 49.6905 36.1224ZM29.0979 38.2246C29.0979 39.1243 29.5885 39.9031 30.3092 40.3267V36.1224C29.5885 36.546 29.0979 37.3249 29.0979 38.2246ZM29.0979 32.6018V34.0203C29.8138 33.6004 30.6338 33.3416 31.5205 33.3416C33.541 33.3416 35.4392 32.5493 36.8674 31.11L38.6747 29.2887L40.4832 30.6559C42.775 32.3882 45.6144 33.3416 48.4792 33.3416C49.3659 33.3416 50.186 33.6004 50.9019 34.0203V29.8294C50.9019 27.427 49.2871 25.342 46.9735 24.7597L46.5193 24.6449L46.26 24.253C44.9687 22.2998 42.8065 21.134 40.4783 21.134C34.2024 21.134 29.0979 26.2795 29.0979 32.6018ZM32.7319 35.7013V40.6661C32.7319 44.7056 35.9916 47.9906 39.9999 47.9906C44.0082 47.9906 47.2679 44.7056 47.2679 40.6661V35.733C44.3013 35.4974 41.4147 34.4097 39.0308 32.6079L38.9024 32.5114L38.5802 32.8362C36.9836 34.4451 34.9401 35.4339 32.7319 35.7013ZM49.653 56.2405L50.6354 60.1982H56.5636L55.8005 57.5027C55.1742 55.2956 53.3984 53.6451 51.1647 53.1947L42.4225 51.4344V50.1111C41.6461 50.3137 40.8381 50.4321 39.9999 50.4321C39.1616 50.4321 38.3537 50.3137 37.5772 50.1098V51.4331L28.8362 53.1947C26.6025 53.6451 24.8267 55.2944 24.2004 57.5027L23.4349 60.1982H29.3631L30.3455 56.2405L32.6955 56.8313L31.8609 60.1982H48.1388L47.303 56.8313L49.653 56.2405Z" fill="#7052BA"/>
</svg>
